<?xml version="1.0" encoding="UTF-8" standalone="no" ?>
<!DOCTYPE svg PUBLIC "-//W3C//DTD SVG 1.1//EN" "http://www.w3.org/Graphics/SVG/1.1/DTD/svg11.dtd">
<svg xmlns="http://www.w3.org/2000/svg" xmlns:xlink="http://www.w3.org/1999/xlink" version="1.1" width="1080" height="1080" viewBox="0 0 1080 1080" xml:space="preserve">
<desc>Created with Fabric.js 5.2.4</desc>
<defs>
</defs>
<rect x="0" y="0" width="100%" height="100%" fill="transparent"></rect>
<g transform="matrix(1 0 0 1 540 540)" id="b312ac5e-7ae9-479d-b44a-226defa1d903"  >
<rect style="stroke: none; stroke-width: 1; stroke-dasharray: none; stroke-linecap: butt; stroke-dashoffset: 0; stroke-linejoin: miter; stroke-miterlimit: 4; fill: rgb(255,255,255); fill-rule: nonzero; opacity: 1; visibility: hidden;" vector-effect="non-scaling-stroke"  x="-540" y="-540" rx="0" ry="0" width="1080" height="1080" />
</g>
<g transform="matrix(1 0 0 1 540 540)" id="073d192a-d21f-400e-a666-2ac43a62640e"  >
</g>
<g transform="matrix(3.09 0 0 3.09 540 540)"  >
<g style=""   >
		<g transform="matrix(2.03 0 0 2.03 -19.07 -59.14)" id="SvgjsG1012"  >
<path style="stroke: none; stroke-width: 1; stroke-dasharray: none; stroke-linecap: butt; stroke-dashoffset: 0; stroke-linejoin: miter; stroke-miterlimit: 4; fill: rgb(17,17,17); fill-rule: nonzero; opacity: 1;" vector-effect="non-scaling-stroke"  transform=" translate(-40.59, -47.02)" d="M 50 1 C 50 21.219 17.333 43.937 17.333 66.333 C 17.333 77.371 22.807 87.13 31.188 93.044 C 31.188 72.824 63.855000000000004 50.107 63.855000000000004 27.711 C 63.855 16.672 58.381 6.914 50 1 z" stroke-linecap="round" />
</g>
		<g transform="matrix(2.03 0 0 2.03 25.94 -15.03)" id="SvgjsG1012"  >
<path style="stroke: none; stroke-width: 1; stroke-dasharray: none; stroke-linecap: butt; stroke-dashoffset: 0; stroke-linejoin: miter; stroke-miterlimit: 4; fill: rgb(17,17,17); fill-rule: nonzero; opacity: 1;" vector-effect="non-scaling-stroke"  transform=" translate(-62.79, -68.78)" d="M 74.927 38.552 C 70.31400000000001 59.094 42.922000000000004 79.706 42.922000000000004 98.221 C 45.201 98.727 47.568 99 50 99 C 68.041 99 82.667 84.375 82.667 66.333 C 82.667 58.777 79.602 48.761 74.927 38.552 z" stroke-linecap="round" />
</g>
		<g transform="matrix(4.55 0 0 4.55 0 108.82)" id="SvgjsG1013"  >
<path style="stroke: none; stroke-width: 1; stroke-dasharray: none; stroke-linecap: butt; stroke-dashoffset: 0; stroke-linejoin: miter; stroke-miterlimit: 4; fill: rgb(17,17,17); fill-rule: nonzero; opacity: 1;" vector-effect="non-scaling-stroke"  transform=" translate(-36.97, -15.24)" d="M 0.54 16.34 L 3.84 15.66 C 3.86 17.06 4.9399999999999995 17.5 6.04 17.5 C 7.08 17.5 7.68 17.12 7.68 16.5 C 7.68 14.4 0.8999999999999995 15.36 0.8999999999999995 10.559999999999999 C 0.8999999999999995 7.919999999999998 2.9399999999999995 6.499999999999999 5.999999999999999 6.499999999999999 C 9.079999999999998 6.499999999999999 11.02 7.959999999999999 10.919999999999998 10.079999999999998 L 7.619999999999998 10.759999999999998 C 7.599999999999999 10.219999999999999 7.479999999999999 9.279999999999998 5.919999999999998 9.279999999999998 C 4.839999999999998 9.279999999999998 4.299999999999998 9.719999999999997 4.299999999999998 10.319999999999997 C 4.299999999999998 12.499999999999996 11.079999999999998 11.359999999999996 11.079999999999998 16.139999999999997 C 11.079999999999998 18.539999999999996 9.379999999999999 20.279999999999998 5.999999999999998 20.279999999999998 C 2.399999999999998 20.279999999999998 0.41999999999999815 18.319999999999997 0.5399999999999983 16.339999999999996 z M 17.28 20.28 C 13.500000000000002 20.28 12.360000000000001 17.94 12.360000000000001 15.260000000000002 C 12.360000000000001 12.64 13.440000000000001 10.380000000000003 17.220000000000002 10.380000000000003 C 21.080000000000002 10.380000000000003 22.1 12.720000000000002 22.1 15.300000000000002 C 22.1 18.040000000000003 20.96 20.28 17.28 20.28 z M 17.240000000000002 17.96 C 18.6 17.96 18.860000000000003 16.7 18.860000000000003 15.34 C 18.860000000000003 13.98 18.6 12.7 17.220000000000002 12.7 C 15.860000000000003 12.7 15.600000000000001 13.979999999999999 15.600000000000001 15.299999999999999 C 15.600000000000001 16.64 15.860000000000001 17.96 17.240000000000002 17.96 z M 23.099999999999998 23.62 L 24.58 21.62 C 24.599999999999998 21.66 25.02 22.34 25.599999999999998 22.34 C 26.179999999999996 22.34 26.52 22.02 26.7 21.04 L 26.9 19.919999999999998 L 22.74 10.659999999999998 L 26.279999999999998 10.659999999999998 L 27.74 14.399999999999999 C 27.979999999999997 15.04 28.18 15.779999999999998 28.319999999999997 16.36 C 28.439999999999998 15.799999999999999 28.599999999999998 15.12 28.819999999999997 14.399999999999999 L 29.919999999999998 10.659999999999998 L 33.28 10.659999999999998 L 29.68 20.159999999999997 L 29.419999999999998 21.619999999999997 C 29.119999999999997 23.259999999999998 28.18 24.839999999999996 25.72 24.839999999999996 C 23.799999999999997 24.839999999999996 23.099999999999998 23.619999999999997 23.099999999999998 23.619999999999997 z M 34.3 20 L 34.3 5.640000000000001 L 37.419999999999995 5.640000000000001 L 37.419999999999995 20 L 34.3 20 z M 39.300000000000004 7.4 C 39.300000000000004 6.44 40.1 5.66 41.06 5.66 C 42.04 5.66 42.82 6.44 42.82 7.4 C 42.82 8.36 42.04 9.16 41.06 9.16 C 40.1 9.16 39.300000000000004 8.36 39.300000000000004 7.4 z M 39.5 20 L 39.5 10.66 L 42.62 10.66 L 42.62 20 L 39.5 20 z M 44.50000000000001 13.84 C 44.50000000000001 11.7 46.080000000000005 10.379999999999999 49.00000000000001 10.379999999999999 C 49.940000000000005 10.379999999999999 50.74000000000001 10.52 51.400000000000006 10.799999999999999 C 51.620000000000005 10.52 51.7 10.299999999999999 51.7 9.7 L 51.7 8.559999999999999 L 54.160000000000004 8.94 C 54.220000000000006 9.299999999999999 54.24 9.6 54.24 9.799999999999999 C 54.24 10.62 53.9 11.319999999999999 52.82 11.84 C 53.2 12.34 53.42 13 53.42 13.76 C 53.42 15.96 51.760000000000005 17.259999999999998 48.900000000000006 17.259999999999998 C 48.24000000000001 17.259999999999998 47.660000000000004 17.2 47.14000000000001 17.06 C 46.940000000000005 17.22 46.82000000000001 17.4 46.82000000000001 17.58 C 46.82000000000001 18.34 48.720000000000006 18.279999999999998 50.20000000000001 18.38 C 52.68000000000001 18.56 54.14000000000001 19.259999999999998 54.14000000000001 21.299999999999997 C 54.14000000000001 24.08 51.46000000000001 24.839999999999996 49.040000000000006 24.839999999999996 C 46.36000000000001 24.839999999999996 44.28000000000001 23.919999999999995 44.28000000000001 22.279999999999998 C 44.28000000000001 21.259999999999998 45.040000000000006 20.639999999999997 45.900000000000006 20.119999999999997 C 44.900000000000006 19.859999999999996 44.28000000000001 19.259999999999998 44.28000000000001 18.38 C 44.28000000000001 17.619999999999997 44.760000000000005 17 45.62000000000001 16.34 C 44.88000000000001 15.76 44.500000000000014 14.9 44.500000000000014 13.84 z M 50.1 20.86 C 49.02 20.8 48.620000000000005 20.759999999999998 47.84 20.68 C 47.14 21.16 46.96 21.419999999999998 46.96 21.72 C 46.96 22.16 47.34 22.619999999999997 49.04 22.619999999999997 C 50.42 22.619999999999997 51.32 22.319999999999997 51.32 21.659999999999997 C 51.32 21.199999999999996 50.9 20.899999999999995 50.1 20.859999999999996 z M 48.940000000000005 15.2 C 49.760000000000005 15.2 50.18000000000001 14.7 50.18000000000001 13.799999999999999 C 50.18000000000001 12.919999999999998 49.760000000000005 12.44 48.96000000000001 12.44 C 48.16000000000001 12.44 47.74000000000001 12.94 47.74000000000001 13.84 C 47.74000000000001 14.68 48.10000000000001 15.2 48.94000000000001 15.2 z M 61.18 20 L 61.18 14.66 C 61.18 13.56 60.92 13.02 60.28 13.02 C 59.160000000000004 13.02 58.6 14.459999999999999 58.44 15.02 L 58.44 20 L 55.32 20 L 55.32 5.640000000000001 L 58.44 5.640000000000001 L 58.44 11.760000000000002 C 58.82 11.160000000000002 59.64 10.380000000000003 61.32 10.380000000000003 C 62.7 10.380000000000003 64.3 10.940000000000003 64.3 13.860000000000003 L 64.3 20.000000000000004 L 61.18 20.000000000000004 z M 65.68 13 L 65.68 10.66 L 66.86000000000001 10.66 L 67.04000000000002 8.1 L 69.94000000000003 8.1 L 69.94000000000003 10.66 L 72.50000000000003 10.66 L 72.50000000000003 13 L 69.94000000000003 13 L 69.94000000000003 16.96 C 69.94000000000003 17.42 70.08000000000003 17.7 70.48000000000003 17.7 C 70.98000000000003 17.7 71.08000000000003 17.14 71.12000000000003 16.58 L 73.40000000000003 17.38 C 73.00000000000003 18.96 72.38000000000004 20.2 70.10000000000004 20.2 C 67.62000000000003 20.2 66.82000000000004 18.619999999999997 66.82000000000004 16.96 L 66.82000000000004 13 L 65.68000000000004 13 z" stroke-linecap="round" />
</g>
</g>
</g>
</svg>